<svg width="415" height="247" viewBox="0 0 415 247" fill="none" xmlns="http://www.w3.org/2000/svg">
<path d="M141.335 -301.245C164.389 -314.312 175.916 -320.845 188.117 -323.53C199.854 -326.112 212.013 -326.112 223.751 -323.53C235.951 -320.845 247.478 -314.312 270.533 -301.245L335.767 -264.27L400.405 -226.263C423.248 -212.831 434.67 -206.115 443.095 -196.891C451.201 -188.018 457.28 -177.488 460.912 -166.031C464.688 -154.123 464.793 -140.874 465.004 -114.374L465.6 -39.3927L465.004 35.589C464.793 62.0882 464.688 75.3378 460.912 87.2458C457.28 98.7022 451.201 109.232 443.095 118.106C434.67 127.33 423.248 134.046 400.405 147.478L335.767 185.485L270.533 222.459C247.478 235.526 235.951 242.06 223.751 244.744C212.013 247.327 199.854 247.327 188.117 244.744C175.916 242.06 164.389 235.526 141.335 222.459L76.1006 185.485L11.4626 147.478C-11.3811 134.046 -22.8029 127.33 -31.2278 118.106C-39.3333 109.232 -45.4127 98.7022 -49.0449 87.2458C-52.8204 75.3378 -52.9257 62.0882 -53.1364 35.589L-53.7324 -39.3927L-53.1364 -114.374C-52.9257 -140.874 -52.8204 -154.123 -49.0449 -166.031C-45.4127 -177.488 -39.3333 -188.018 -31.2278 -196.891C-22.8029 -206.115 -11.3811 -212.831 11.4626 -226.263L76.1006 -264.27L141.335 -301.245Z" fill="#F5F6FB"/>
</svg>
