<svg width="414" height="238" viewBox="0 0 414 238" fill="none" xmlns="http://www.w3.org/2000/svg">
<path d="M142.401 24.2494C165.455 11.1822 176.983 4.64865 189.183 1.96427C200.921 -0.618299 213.079 -0.618298 224.817 1.96427C237.018 4.64865 248.545 11.1822 271.599 24.2494L336.833 61.2241L401.471 99.2311C424.315 112.663 435.737 119.379 444.162 128.603C452.267 137.477 458.346 148.007 461.979 159.463C465.754 171.371 465.859 184.621 466.07 211.12L466.666 286.101L466.07 361.083C465.859 387.582 465.754 400.832 461.979 412.74C458.346 424.196 452.267 434.726 444.162 443.6C435.737 452.824 424.315 459.54 401.471 472.972L336.833 510.979L271.599 547.953C248.545 561.021 237.018 567.554 224.817 570.239C213.079 572.821 200.921 572.821 189.183 570.239C176.983 567.554 165.455 561.021 142.401 547.953L77.167 510.979L12.529 472.972C-10.3147 459.54 -21.7365 452.824 -30.1614 443.6C-38.2669 434.726 -44.3463 424.196 -47.9785 412.74C-51.754 400.832 -51.8593 387.582 -52.07 361.083L-52.666 286.101L-52.07 211.12C-51.8593 184.621 -51.754 171.371 -47.9785 159.463C-44.3463 148.006 -38.2668 137.477 -30.1614 128.603C-21.7365 119.379 -10.3147 112.663 12.529 99.2311L77.167 61.2241L142.401 24.2494Z" fill="white"/>
</svg>
