<svg width="475" height="107" viewBox="0 0 475 107" fill="none" xmlns="http://www.w3.org/2000/svg">
<path d="M163.901 -521.709C190.344 -536.697 203.566 -544.191 217.56 -547.27C231.024 -550.233 244.97 -550.233 258.434 -547.27C272.428 -544.191 285.65 -536.697 312.093 -521.709L386.918 -479.298L461.06 -435.703C487.262 -420.296 500.363 -412.593 510.027 -402.013C519.324 -391.835 526.297 -379.757 530.463 -366.616C534.794 -352.957 534.915 -337.76 535.156 -307.364L535.84 -221.359L535.156 -135.353C534.915 -104.958 534.794 -89.7604 530.463 -76.1016C526.297 -62.9609 519.324 -50.8829 510.027 -40.7044C500.363 -30.1246 487.262 -22.4212 461.06 -7.01443L386.918 36.5805L312.094 78.9912C285.65 93.9796 272.428 101.474 258.434 104.553C244.97 107.515 231.024 107.515 217.56 104.553C203.566 101.474 190.344 93.9796 163.901 78.9912L89.0757 36.5805L14.9344 -7.01437C-11.2678 -22.4212 -24.3688 -30.1246 -34.0325 -40.7044C-43.3295 -50.8829 -50.3028 -62.9609 -54.4691 -76.1016C-58.7996 -89.7604 -58.9204 -104.958 -59.162 -135.353L-59.8457 -221.359L-59.162 -307.364C-58.9204 -337.76 -58.7996 -352.957 -54.4691 -366.616C-50.3028 -379.757 -43.3295 -391.835 -34.0325 -402.013C-24.3689 -412.593 -11.2678 -420.296 14.9344 -435.703L89.0757 -479.298L163.901 -521.709Z" fill="url(#paint0_linear)"/>
<defs>
<linearGradient id="paint0_linear" x1="535.84" y1="106.762" x2="-59.8457" y2="106.762" gradientUnits="userSpaceOnUse">
<stop stop-color="#000BAB"/>
<stop offset="1" stop-color="#0078FA"/>
</linearGradient>
</defs>
</svg>
