<svg width="24" height="25" viewBox="0 0 24 25" fill="none" xmlns="http://www.w3.org/2000/svg">
<path d="M12 24.7822C18.5391 24.7822 23.9531 19.3564 23.9531 12.8291C23.9531 6.29004 18.5273 0.875977 11.9883 0.875977C5.46094 0.875977 0.046875 6.29004 0.046875 12.8291C0.046875 19.3564 5.47266 24.7822 12 24.7822ZM12 22.79C6.46875 22.79 2.05078 18.3604 2.05078 12.8291C2.05078 7.29785 6.45703 2.86816 11.9883 2.86816C17.5195 2.86816 21.9492 7.29785 21.9609 12.8291C21.9727 18.3604 17.5312 22.79 12 22.79ZM5.87109 14.0947H11.9883C12.4453 14.0947 12.8086 13.7432 12.8086 13.2744V5.37598C12.8086 4.91895 12.4453 4.56738 11.9883 4.56738C11.5312 4.56738 11.1797 4.91895 11.1797 5.37598V12.4658H5.87109C5.40234 12.4658 5.05078 12.8174 5.05078 13.2744C5.05078 13.7432 5.40234 14.0947 5.87109 14.0947Z" fill="#000BAB"/>
</svg>
