<svg width="27" height="26" viewBox="0 0 27 26" fill="none" xmlns="http://www.w3.org/2000/svg">
<path d="M14.5195 1.80176C14.5195 1.25098 14.0508 0.782227 13.4883 0.782227C12.9375 0.782227 12.4688 1.25098 12.4688 1.80176V5.22363C12.4688 5.77441 12.9375 6.24316 13.4883 6.24316C14.0508 6.24316 14.5195 5.77441 14.5195 5.22363V1.80176ZM6.82031 8.28223C7.21875 8.68066 7.875 8.68066 8.26172 8.28223C8.66016 7.89551 8.66016 7.23926 8.26172 6.84082L5.85938 4.42676C5.47266 4.04004 4.81641 4.02832 4.41797 4.41504C4.03125 4.80176 4.03125 5.45801 4.41797 5.85645L6.82031 8.28223ZM18.5859 6.95801C18.1992 7.35645 18.1992 8.0127 18.5859 8.39941C18.9844 8.79785 19.6523 8.79785 20.0391 8.39941L22.4531 5.98535C22.8516 5.58691 22.8516 4.93066 22.4531 4.53223C22.0664 4.14551 21.4102 4.14551 21.0234 4.53223L18.5859 6.95801ZM12.5625 21.6416C12.5508 22.0986 13.0898 22.2393 13.3828 21.9463L15.1641 20.1533L17.168 25.1104C17.2617 25.3213 17.5078 25.4385 17.7188 25.3447L18.8789 24.8877C19.0898 24.7822 19.1719 24.5361 19.0664 24.3252L16.957 19.4502L19.4883 19.3447C19.9336 19.3213 20.1445 18.8994 19.8281 18.5596L13.4297 11.9854C13.125 11.6807 12.6797 11.8447 12.668 12.2783L12.5625 21.6416ZM1.79297 12.4775C1.24219 12.4775 0.773438 12.9463 0.773438 13.4971C0.773438 14.0479 1.24219 14.5166 1.79297 14.5166H5.22656C5.78906 14.5166 6.25781 14.0479 6.25781 13.4971C6.25781 12.9463 5.78906 12.4775 5.22656 12.4775H1.79297ZM25.1836 14.5166C25.7461 14.5166 26.2148 14.0479 26.2148 13.4971C26.2148 12.9463 25.7461 12.4775 25.1836 12.4775H21.7617C21.2109 12.4775 20.7422 12.9463 20.7422 13.4971C20.7422 14.0479 21.2109 14.5166 21.7617 14.5166H25.1836ZM4.52344 21.0088C4.13672 21.3955 4.13672 22.0635 4.51172 22.4502C4.89844 22.8369 5.56641 22.8486 5.96484 22.4619L8.37891 20.0479C8.77734 19.6611 8.77734 19.0049 8.37891 18.6064C8.00391 18.2197 7.33594 18.2197 6.9375 18.6064L4.52344 21.0088Z" fill="#000BAB"/>
</svg>
