<svg width="25" height="23" viewBox="0 0 25 23" fill="none" xmlns="http://www.w3.org/2000/svg">
<path d="M0.265625 20.0156C0.265625 20.4961 0.464844 20.8477 0.886719 21.082L3.23047 22.4531C3.53516 22.6406 3.74609 22.6758 4.15625 22.4414L6.44141 21.1172C6.86328 20.8828 6.94531 20.6836 6.93359 20.2969L6.94531 18.5742L12.5352 15.7617L18.0547 18.5391L18.0664 20.3086C18.0547 20.6953 18.1367 20.8945 18.5586 21.1289L20.8438 22.4531C21.2539 22.6875 21.4648 22.6523 21.7695 22.4648L24.1133 21.0938C24.5352 20.8594 24.7344 20.5078 24.7344 20.0273L24.7578 17.3086C24.7578 16.9805 24.6992 16.7461 24.3008 16.5234L21.9805 15.1758C21.582 14.9531 21.3242 15.0117 21.0195 15.1758L18.6641 16.5469C18.6055 16.582 18.5469 16.6172 18.5 16.6641L13.4844 14.1445V7.39453L15.4648 6.25781C15.793 6.07031 15.9336 5.89453 15.9336 5.41406V2.76562C15.9336 2.29688 15.793 2.13281 15.4883 1.95703L13.1211 0.609375C12.6992 0.375 12.3008 0.375 11.8906 0.609375L9.52344 1.95703C9.23047 2.12109 9.06641 2.29688 9.06641 2.76562V5.41406C9.06641 5.89453 9.24219 6.08203 9.54688 6.25781L11.5977 7.42969V14.1445L6.54688 16.6758C6.47656 16.6289 6.41797 16.582 6.33594 16.5352L3.98047 15.1641C3.67578 15 3.41797 14.9414 3.01953 15.1641L0.699219 16.5117C0.300781 16.7344 0.242188 16.9688 0.242188 17.2969L0.265625 20.0156Z" fill="#000BAB"/>
</svg>
