<svg width="24" height="26" viewBox="0 0 24 26" fill="none" xmlns="http://www.w3.org/2000/svg">
<path d="M1.80469 20.2236L11.0273 25.4502C11.6836 25.8252 12.3047 25.8252 12.9727 25.4502L22.1836 20.2236C23.2617 19.6143 23.8242 18.9932 23.8242 17.3174V8.03613C23.8242 6.81738 23.3789 6.05566 22.3945 5.49316L14.0977 0.782227C12.6797 -0.0380859 11.3086 -0.0380859 9.89062 0.782227L1.60547 5.49316C0.609375 6.05566 0.164062 6.81738 0.164062 8.03613V17.3174C0.164062 18.9932 0.738281 19.6143 1.80469 20.2236ZM11.1914 4.18066H12.7969V2.21191C12.9727 2.28223 13.1484 2.36426 13.3242 2.45801L21.0469 6.86426L12.7969 11.5283V9.66504H11.1914V11.5283L2.95312 6.86426L10.6758 2.45801C10.8516 2.36426 11.0273 2.28223 11.1914 2.21191V4.18066ZM11.1914 8.46973H12.7969V5.36426H11.1914V8.46973ZM2.85938 18.6768L2.80078 18.6533L4.21875 17.9385L3.49219 16.4971L1.94531 17.2705V8.41113L10.2422 13.1572L8.41406 14.0713L9.12891 15.5127L11.0742 14.54V23.3525L2.85938 18.6768ZM19.7695 17.9385L21.1875 18.6533L21.1406 18.6768L12.9141 23.3525V14.54L14.8594 15.5127L15.5742 14.0713L13.7461 13.1572L22.043 8.41113V17.2705L20.5078 16.4971L19.7695 17.9385ZM5.28516 17.4229L8.05078 16.04L7.33594 14.5986L4.57031 15.9814L5.28516 17.4229ZM15.9375 16.04L18.7148 17.4229L19.4297 15.9814L16.6523 14.5986L15.9375 16.04Z" fill="#000BAB"/>
</svg>
